<?xml version="1.0" encoding="UTF-8" standalone="no"?>
<svg
   xmlns:dc="http://purl.org/dc/elements/1.1/"
   xmlns:cc="http://creativecommons.org/ns#"
   xmlns:rdf="http://www.w3.org/1999/02/22-rdf-syntax-ns#"
   xmlns:svg="http://www.w3.org/2000/svg"
   xmlns="http://www.w3.org/2000/svg"
   xmlns:sodipodi="http://sodipodi.sourceforge.net/DTD/sodipodi-0.dtd"
   xmlns:inkscape="http://www.inkscape.org/namespaces/inkscape"
   xml:space="preserve"
   height="16"
   width="16"
   version="1.1"
   y="0px"
   x="0px"
   viewBox="0 0 16 16.001001"
   id="svg2"
   inkscape:version="0.91 r13725"
   sodipodi:docname="character.svg"><metadata
     id="metadata14"><rdf:RDF><cc:Work
         rdf:about=""><dc:format>image/svg+xml</dc:format><dc:type
           rdf:resource="http://purl.org/dc/dcmitype/StillImage" /><dc:title></dc:title></cc:Work></rdf:RDF></metadata><defs
     id="defs12"><inkscape:path-effect
       effect="skeletal"
       id="path-effect4393"
       is_visible="true"
       pattern="m -36.002254,0 1,0"
       copytype="single_stretched"
       prop_scale="1"
       scale_y_rel="false"
       spacing="0"
       normal_offset="0"
       tang_offset="0"
       prop_units="false"
       vertical_pattern="false"
       fuse_tolerance="0" /><inkscape:path-effect
       effect="skeletal"
       id="path-effect4389"
       is_visible="true"
       pattern="m -36.002254,0 1,0"
       copytype="single_stretched"
       prop_scale="1"
       scale_y_rel="false"
       spacing="0"
       normal_offset="0"
       tang_offset="0"
       prop_units="false"
       vertical_pattern="false"
       fuse_tolerance="0" /><inkscape:path-effect
       effect="skeletal"
       id="path-effect4385"
       is_visible="true"
       pattern="m -36.002254,0 1,0"
       copytype="single_stretched"
       prop_scale="1"
       scale_y_rel="false"
       spacing="0"
       normal_offset="0"
       tang_offset="0"
       prop_units="false"
       vertical_pattern="false"
       fuse_tolerance="0" /><inkscape:path-effect
       effect="skeletal"
       id="path-effect4381"
       is_visible="true"
       pattern="m -36.002254,0 1,0"
       copytype="single_stretched"
       prop_scale="1"
       scale_y_rel="false"
       spacing="0"
       normal_offset="0"
       tang_offset="0"
       prop_units="false"
       vertical_pattern="false"
       fuse_tolerance="0" /><inkscape:path-effect
       effect="skeletal"
       id="path-effect4393-8"
       is_visible="true"
       pattern="m 38.002378,2.0001252 1,0"
       copytype="single_stretched"
       prop_scale="1"
       scale_y_rel="false"
       spacing="0"
       normal_offset="0"
       tang_offset="0"
       prop_units="false"
       vertical_pattern="false"
       fuse_tolerance="0" /><inkscape:path-effect
       effect="skeletal"
       id="path-effect4385-2"
       is_visible="true"
       pattern="m 38.002378,6.0003755 1,0"
       copytype="single_stretched"
       prop_scale="1"
       scale_y_rel="false"
       spacing="0"
       normal_offset="0"
       tang_offset="0"
       prop_units="false"
       vertical_pattern="false"
       fuse_tolerance="0" /><inkscape:path-effect
       effect="skeletal"
       id="path-effect4381-0"
       is_visible="true"
       pattern="m 38.002378,6.0003755 1,0"
       copytype="single_stretched"
       prop_scale="1"
       scale_y_rel="false"
       spacing="0"
       normal_offset="0"
       tang_offset="0"
       prop_units="false"
       vertical_pattern="false"
       fuse_tolerance="0" /><inkscape:path-effect
       effect="skeletal"
       id="path-effect4389-9"
       is_visible="true"
       pattern="m 38.002378,6.0003755 1,0"
       copytype="single_stretched"
       prop_scale="1"
       scale_y_rel="false"
       spacing="0"
       normal_offset="0"
       tang_offset="0"
       prop_units="false"
       vertical_pattern="false"
       fuse_tolerance="0" /><inkscape:path-effect
       effect="skeletal"
       id="path-effect4385-6"
       is_visible="true"
       pattern="m 38.002378,2.0001252 1,0"
       copytype="single_stretched"
       prop_scale="1"
       scale_y_rel="false"
       spacing="0"
       normal_offset="0"
       tang_offset="0"
       prop_units="false"
       vertical_pattern="false"
       fuse_tolerance="0" /><inkscape:path-effect
       effect="skeletal"
       id="path-effect4381-7"
       is_visible="true"
       pattern="m 38.002378,2.0001252 1,0"
       copytype="single_stretched"
       prop_scale="1"
       scale_y_rel="false"
       spacing="0"
       normal_offset="0"
       tang_offset="0"
       prop_units="false"
       vertical_pattern="false"
       fuse_tolerance="0" /><inkscape:path-effect
       effect="skeletal"
       id="path-effect4389-1"
       is_visible="true"
       pattern="m 38.002378,2.0001252 1,0"
       copytype="single_stretched"
       prop_scale="1"
       scale_y_rel="false"
       spacing="0"
       normal_offset="0"
       tang_offset="0"
       prop_units="false"
       vertical_pattern="false"
       fuse_tolerance="0" /><inkscape:path-effect
       effect="skeletal"
       id="path-effect4393-1"
       is_visible="true"
       pattern="m 38.002378,2.0001252 1,0"
       copytype="single_stretched"
       prop_scale="1"
       scale_y_rel="false"
       spacing="0"
       normal_offset="0"
       tang_offset="0"
       prop_units="false"
       vertical_pattern="false"
       fuse_tolerance="0" /><inkscape:path-effect
       effect="skeletal"
       id="path-effect4385-22"
       is_visible="true"
       pattern="m 58.00363,2.0001252 1,0"
       copytype="single_stretched"
       prop_scale="1"
       scale_y_rel="false"
       spacing="0"
       normal_offset="0"
       tang_offset="0"
       prop_units="false"
       vertical_pattern="false"
       fuse_tolerance="0" /><inkscape:path-effect
       effect="skeletal"
       id="path-effect4381-2"
       is_visible="true"
       pattern="m 58.00363,2.0001252 1,0"
       copytype="single_stretched"
       prop_scale="1"
       scale_y_rel="false"
       spacing="0"
       normal_offset="0"
       tang_offset="0"
       prop_units="false"
       vertical_pattern="false"
       fuse_tolerance="0" /><inkscape:path-effect
       effect="skeletal"
       id="path-effect4389-6"
       is_visible="true"
       pattern="m 58.00363,2.0001252 1,0"
       copytype="single_stretched"
       prop_scale="1"
       scale_y_rel="false"
       spacing="0"
       normal_offset="0"
       tang_offset="0"
       prop_units="false"
       vertical_pattern="false"
       fuse_tolerance="0" /><inkscape:path-effect
       effect="skeletal"
       id="path-effect4393-4"
       is_visible="true"
       pattern="m 58.00363,2.0001252 1,0"
       copytype="single_stretched"
       prop_scale="1"
       scale_y_rel="false"
       spacing="0"
       normal_offset="0"
       tang_offset="0"
       prop_units="false"
       vertical_pattern="false"
       fuse_tolerance="0" /></defs><sodipodi:namedview
     pagecolor="#ffffff"
     bordercolor="#666666"
     borderopacity="1"
     objecttolerance="10"
     gridtolerance="10"
     guidetolerance="10"
     inkscape:pageopacity="0"
     inkscape:pageshadow="2"
     inkscape:window-width="1920"
     inkscape:window-height="1051"
     id="namedview10"
     showgrid="true"
     inkscape:zoom="22.627417"
     inkscape:cx="23.514986"
     inkscape:cy="13.679109"
     inkscape:window-x="866"
     inkscape:window-y="1431"
     inkscape:window-maximized="1"
     inkscape:current-layer="svg2"
     inkscape:snap-bbox="true"
     inkscape:object-paths="true"
     inkscape:snap-intersection-paths="true"
     inkscape:object-nodes="true"
     inkscape:snap-midpoints="true"
     inkscape:snap-smooth-nodes="true"
     inkscape:snap-bbox-midpoints="true"
     inkscape:snap-bbox-edge-midpoints="true"
     inkscape:bbox-nodes="true"
     inkscape:bbox-paths="true"><inkscape:grid
       type="xygrid"
       id="grid4358" /></sodipodi:namedview><path
     style="fill:#440000;fill-opacity:1;fill-rule:evenodd;stroke:none;stroke-width:2.00012517;stroke-linecap:square;stroke-linejoin:bevel;stroke-miterlimit:4;stroke-dasharray:none;stroke-opacity:1"
     d="m 1.9996246,1.0000626 -1.00006298,1.0000626 0,2.0001252 1.00006298,1.0000625 0,3.0001878 2.000125,2.0001253 -2.000125,2.000125 0,2.000125 1.000062,0 2.000125,2.000125 7.0004384,0 1.000062,-1.000062 0,-1.000063 1.000063,-1.000062 0,-3.000188 -1.000063,-1.0000627 1.000063,-1.0000626 0,-6.0003755 -1.000063,-1.0000626 -1.000062,0 -1.000062,1.0000626 0,-1.0000626 -4.0002504,0 -1.000063,1.0000626 0,-1.0000626 -2.000125,0 -1.000063,1.0000626 0,-1.0000626 z"
     id="path4462"
     inkscape:connector-curvature="0"
     sodipodi:nodetypes="ccccccccccccccccccccccccccccc" /><path
     style="fill:#8cbcfe;fill-opacity:1;fill-rule:evenodd;stroke:none;stroke-width:1px;stroke-linecap:butt;stroke-linejoin:miter;stroke-opacity:1"
     d="m 4.9998126,10.000626 c -0.6667087,0.666708 -1.3334173,1.333417 -2.000126,2.000125 0,0.333354 0,0.666708 0,1.000062 0,0 0,10e-7 0,10e-7 3.3335421,0 6.6670843,0 10.0006264,0 0,0 0,-10e-7 0,-10e-7 0,-1.000062 0,-2.000125 0,-3.000187 -2.666833,0 -5.3336669,0 -8.0005004,0 z"
     id="path4379"
     inkscape:path-effect="#path-effect4381"
     inkscape:original-d="m 4.9998126,10.000626 -2.000126,2.000125 0,1.000063 10.0006264,0 0,-3.000188 z"
     inkscape:connector-curvature="0"
     sodipodi:nodetypes="cccccc" /><path
     style="fill:#dcdcdc;fill-opacity:1;fill-rule:evenodd;stroke:none;stroke-width:1px;stroke-linecap:butt;stroke-linejoin:miter;stroke-opacity:1"
     d="m 4.9998116,15.000939 c 2.3334795,0 4.6669589,0 7.0004384,0 0,-0.333354 0,-0.666708 0,-1.000063 0,0 0,0 0,0 -2.6668332,0 -5.3336664,0 -8.0004995,0 -3e-7,0 -6e-7,0 -9e-7,0 0.333354,0.333354 0.666708,0.666709 1.000062,1.000063 z"
     id="path4383"
     inkscape:path-effect="#path-effect4385"
     inkscape:original-d="m 4.9998116,15.000939 7.0004384,0 0,-1.000063 -8.0005004,0 z"
     inkscape:connector-curvature="0"
     sodipodi:nodetypes="ccccc" /><path
     style="fill:#febc8c;fill-opacity:1;fill-rule:evenodd;stroke:none;stroke-width:1px;stroke-linecap:butt;stroke-linejoin:miter;stroke-opacity:1"
     d="m 11.000188,6.0003755 c 0,0.3333542 0,0.6667084 0,1.0000626 -0.333354,0.3333542 -0.666709,0.6667084 -1.000063,1.0000626 0,-2e-7 0,-4e-7 0,-6e-7 0,-0.666708 0,-1.333416 0,-2.000124 0,-2e-7 0,-4e-7 0,-6e-7 -1.6667707,0 -3.3335414,0 -5.0003122,0 -4e-7,0 -8e-7,0 -1.2e-6,0 3e-7,1.0000626 7e-7,2.0001253 1e-6,3.0001879 4e-7,0 8e-7,0 1.2e-6,0 2.3334788,0 4.6669575,0 7.0004362,0 0,-3e-7 1e-6,-6e-7 1e-6,-9e-7 0.333354,-0.3333539 0.666708,-0.6667078 1.000062,-1.0000617 0,-0.6667084 -1e-6,-1.3334169 -1e-6,-2.0001253 -0.666708,0 -1.333416,0 -2.000124,0 z"
     id="path4387"
     inkscape:path-effect="#path-effect4389"
     inkscape:original-d="m 11.000188,6.0003755 0,1.0000626 -1.000063,1.0000626 0,-2.0001252 -5.0003134,0 1e-6,3.0001879 7.0004374,0 1.000063,-1.0000626 -1e-6,-2.0001253 z"
     inkscape:connector-curvature="0"
     sodipodi:nodetypes="cccccccccc" /><path
     style="fill:#2626fe;fill-opacity:1;fill-rule:evenodd;stroke:none;stroke-width:1px;stroke-linecap:butt;stroke-linejoin:miter;stroke-opacity:1"
     d="M 3.9997496,6.0003756 C 4.3331039,5.6670214 4.6664583,5.3336672 4.9998126,5.000313 c 2.6668335,0 5.3336674,0 8.0005004,0 0,-1.0000623 0,-2.0001246 0,-3.0001868 0,-4e-7 0,-7e-7 0,-1e-6 -0.333354,0 -0.666709,0 -1.000063,0 -0.333354,0.333354 -0.666708,0.6667079 -1.000061,1.0000619 -1e-6,2e-7 -1e-6,5e-7 -1e-6,7e-7 0,-0.3333542 0,-0.6667084 0,-1.0000626 -1.3334168,0 -2.6668336,0 -4.0002504,0 -0.3333543,0.3333542 -0.6667087,0.6667084 -1.000063,1.0000626 0,-6e-7 0,-1.3e-6 0,-1.9e-6 0,-0.3333529 0,-0.6667059 0,-1.0000588 0,-6e-7 0,-1.3e-6 0,-1.9e-6 -0.6667083,0 -1.3334167,0 -2.000125,0 -5e-7,5e-7 -9e-7,9e-7 -1.4e-6,1.4e-6 -0.3333535,0.3333537 -0.6667071,0.6667075 -1.0000606,1.0000612 0,-0.3333542 0,-0.6667084 0,-1.0000626 -0.3333543,0 -0.6667087,0 -1.000063,0 0,0.6667078 0,1.3334155 0,2.0001233 0,6e-7 0,1.3e-6 0,1.9e-6 0.3333543,0.3333542 0.6667087,0.6667084 1.000063,1.0000626 0,6e-7 0,1.3e-6 0,1.9e-6 0,1.000062 0,2.0001239 0,3.0001859 0.333354,0.3333542 0.666708,0.6667083 1.000062,1.0000625 0,-1.0000626 0,-2.0001251 0,-3.0001877 z"
     id="path4391"
     inkscape:original-d="m 3.9997496,6.0003756 1.000063,-1.0000626 8.0005004,0 0,-3.0001878 -1.000063,0 -1.000062,1.0000626 0,-1.0000626 -4.0002504,0 -1.000063,1.0000626 0,-1.0000626 -2.000125,0 -1.000062,1.0000626 0,-1.0000626 -1.000063,0 0,2.0001252 1.000063,1.0000626 0,3.0001878 1.000062,1.0000625 z"
     inkscape:connector-curvature="0"
     sodipodi:nodetypes="ccccccccccccccccccc"
     inkscape:path-effect="#path-effect4393" /></svg>