<svg xmlns="http://www.w3.org/2000/svg" xml:space="preserve" width="16" height="16"><path fill="#ccc" d="M2 2h12v12H2z" color="#000" overflow="visible" style="isolation:auto;mix-blend-mode:normal;solid-color:#000;solid-opacity:1"/><path fill="#fefe00" d="M4.3 2 2 4.3v1.4l.4-.3 3-3 .3-.4H4.3zm3 0L2 7.3v1.4l.4-.3 6-6 .3-.4H7.3zm3 0L2 10.3v1.4l.4-.3 9-9 .3-.4h-1.4zm3 0L2 13.3v.7h.7L14 2.7V2h-.7zm.7 2.3-.4.3-9 9-.3.4h1.4L14 5.7V4.3zm0 3-.4.3-6 6-.3.4h1.4L14 8.7V7.3zm0 3-.4.3-3 3-.3.4h1.4l2.3-2.3v-1.4z" color="#000" overflow="visible" style="isolation:auto;mix-blend-mode:normal;solid-color:#000;solid-opacity:1"/><path fill="#400" d="M1 1v14h14V1H1zm1 1h12v12H2V2z" color="#000" overflow="visible" style="isolation:auto;mix-blend-mode:normal;solid-color:#000;solid-opacity:1"/></svg>