<svg xmlns="http://www.w3.org/2000/svg" xml:space="preserve" width="16" height="16"><path fill="#400" fill-rule="evenodd" d="M2 1 1 2v2l1 1v3l2 2-2 2v2h1l2 2h7l1-1v-1l1-1v-3l-1-1 1-1V2l-1-1h-1l-1 1V1H7L6 2V1H4L3 2V1z"/><path fill="#8cbcfe" fill-rule="evenodd" d="m5 10-2 2v1h10v-3H5z"/><path fill="#dcdcdc" fill-rule="evenodd" d="M5 15h7v-1H4l1 1z"/><path fill="#febc8c" fill-rule="evenodd" d="M11 6v1l-1 1V6H5v3h7l1-1V6h-2z"/><path fill="#2626fe" fill-rule="evenodd" d="m4 6 1-1h8V2h-1l-1 1V2H7L6 3V2H4L3 3V2H2v2l1 1v3l1 1V6z"/></svg>