<svg xmlns="http://www.w3.org/2000/svg" xml:space="preserve" width="16" height="16"><path fill="#5500b8" d="M4 .2c1-.3 1.1.5 1.6.6.5.1 1 .3 1.4.7.4.4.7.9.7 1.4v.9V3l.3.7c-.4.2-.4.8-.8 1-.6.6-1 1.2-1.7 1.7-.2.3-.8.3-.8.5l-.6-.2h.7c-.6.2-1 .4-1.4.9L1.6 9.5c-.6.3-1-.5-.7-1 .1-.6.8-1 .8-1.6 0-.6-.4-1.1-.9-1.5C.5 5-.2 4.7.1 4c.4-.4 1.2-.2 1.5.1.4.5 1.1.4 1.1-.2 0-.5-.1-.9-.4-1.1-.4-.4-.2-1 .3-1 .4-.1 1.1-.3.8-.8-.1-.3.5-.9.7-1z"/><path fill="#fefe00" stroke="#000" stroke-linecap="square" stroke-width="2" d="M-3 8.7h6c1.1 0 2 .9 2 2v4.1c0 1-.9 2-2 2h-6c-1.1 0-2-1-2-2v-4.1c0-1.1.9-2 2-2z" color="#000" overflow="visible" style="isolation:auto;mix-blend-mode:normal;solid-color:#000;solid-opacity:1" transform="rotate(-45)"/><path fill="#00d000" d="M-3 8.7h6c1.1 0 2 .9 2 2v4.1c0 1-.9 2-2 2h-6c-1.1 0-2-1-2-2v-4.1c0-1.1.9-2 2-2z" color="#000" overflow="visible" style="isolation:auto;mix-blend-mode:normal;solid-color:#000;solid-opacity:1" transform="rotate(-45)"/><path fill="#55b800" d="M-5 11.2H5v3H-5z" color="#000" overflow="visible" style="isolation:auto;mix-blend-mode:normal;solid-color:#000;solid-opacity:1" transform="rotate(-45)"/></svg>