<svg xmlns="http://www.w3.org/2000/svg" xml:space="preserve" width="16" height="16"><path fill="#fefe00" d="M0 0h16v16H0z" color="#000" overflow="visible" style="isolation:auto;mix-blend-mode:normal;solid-color:#000;solid-opacity:1"/><path fill="#fefec5" d="M1 1h14v14H1z" color="#000" overflow="visible" style="isolation:auto;mix-blend-mode:normal;solid-color:#000;solid-opacity:1"/><path fill="#0063d0" fill-rule="evenodd" d="M3 2 2 3v3l1 1h2l1-1V4H4v1h1v1H3V3h2l1-1Zm5 0L7 3v4h1V5h2v2h1V2zm0 1h2v1H8zM6 9H5v5h1v-3l1 1 2-1v3h1V9H9l-2 2Zm6 0-1 1v4h3v-1h-2v-1h2v-1h-2v-1h2V9z"/></svg>