<svg xmlns="http://www.w3.org/2000/svg" xml:space="preserve" width="16" height="16"><path fill="#400" d="M5 2 4 3v12h2l1-1v-4h3a3 3 0 0 0 3-3V5a3 3 0 0 0-3-3zm2 3h3v2H7z" color="#000" font-family="sans-serif" font-weight="400" overflow="visible" style="line-height:normal;text-indent:0;text-align:start;text-decoration-line:none;text-decoration-style:solid;text-decoration-color:#000;text-transform:none;block-progression:tb;white-space:normal;isolation:auto;mix-blend-mode:normal;solid-color:#000;solid-opacity:1"/><path fill="#fe007f" d="M5 3v11h1V9h4a2 2 0 0 0 2-2V5a2 2 0 0 0-2-2H5zm1 1h4c.6 0 1 .4 1 1v2c0 .6-.4 1-1 1H6z" color="#000" overflow="visible" style="isolation:auto;mix-blend-mode:normal;solid-color:#000;solid-opacity:1"/></svg>